<?xml version="1.0" standalone="no"?>
<!DOCTYPE svg PUBLIC "-//W3C//DTD SVG 20010904//EN"
 "http://www.w3.org/TR/2001/REC-SVG-20010904/DTD/svg10.dtd">
<svg version="1.0" xmlns="http://www.w3.org/2000/svg"
 width="1216.000000pt" height="1216.000000pt" viewBox="0 0 1216.000000 1216.000000"
 preserveAspectRatio="xMidYMid meet">
<metadata>
Created by potrace 1.14, written by Peter Selinger 2001-2017
</metadata>
<g transform="translate(0.000000,1216.000000) scale(0.100000,-0.100000)"
fill="#000000" stroke="none">
<path d="M2407 10925 c-70 -53 -127 -100 -127 -104 0 -5 55 -11 123 -15 175
-11 211 -20 288 -71 37 -25 70 -45 74 -45 4 0 -21 30 -56 68 -37 39 -83 103
-108 150 -25 46 -50 90 -56 98 -9 13 -31 0 -138 -81z"/>
<path d="M2225 10776 c-29 -21 -10 -34 47 -30 45 3 76 19 63 33 -12 11 -93 9
-110 -3z"/>
<path d="M8072 10473 c-11 -10 -49 -62 -85 -115 -35 -54 -67 -95 -70 -92 -3 3
-11 3 -18 -2 -8 -5 -2 -16 22 -35 38 -32 26 -40 -14 -9 -14 11 -28 20 -31 20
-3 0 -29 15 -58 33 -77 49 -99 52 -130 19 -61 -64 -168 -243 -168 -279 0 -28
27 -73 44 -73 7 0 23 -11 36 -25 13 -14 29 -25 37 -25 7 0 13 -6 13 -14 0 -8
8 -22 18 -32 22 -22 22 -99 0 -134 -9 -14 -23 -49 -33 -78 -13 -42 -14 -56 -5
-67 42 -51 224 -34 254 23 27 50 96 111 140 123 22 6 55 17 71 24 17 8 42 17
56 20 20 5 34 25 67 91 23 46 42 90 42 98 0 14 -52 58 -82 69 -9 3 -35 17 -57
31 l-40 26 28 62 c16 35 45 87 65 116 32 48 66 134 66 169 0 13 -112 73 -136
73 -7 0 -21 -8 -32 -17z m-141 -776 c-10 -9 -11 -8 -5 6 3 10 9 15 12 12 3 -3
0 -11 -7 -18z"/>
<path d="M9972 9540 c-149 -145 -158 -179 -76 -290 24 -33 44 -64 44 -68 0 -5
8 -17 19 -28 35 -38 34 -56 -9 -104 -95 -105 -108 -163 -46 -202 24 -15 43
-18 88 -15 32 3 64 12 73 20 8 8 28 21 45 29 16 7 30 18 30 24 0 21 58 7 96
-23 46 -35 114 -63 152 -62 60 1 111 32 182 114 69 79 82 106 57 122 -6 4 -52
54 -101 111 -70 81 -86 106 -75 112 21 13 219 213 219 222 0 13 -111 138 -123
138 -20 0 -61 -31 -141 -108 -63 -60 -75 -76 -65 -88 9 -11 8 -14 -5 -14 -9 0
-66 47 -127 105 -60 58 -116 105 -122 105 -7 0 -59 -45 -115 -100z"/>
<path d="M7353 9098 c-48 -53 -48 -51 -49 -453 -1 -209 -2 -526 -4 -705 l-2
-325 52 -3 52 -3 -4 752 c-2 517 -6 753 -14 756 -5 2 -19 -7 -31 -19z"/>
<path d="M4823 9082 c-11 -15 -23 -40 -27 -57 -5 -16 -9 -334 -11 -706 -1
-372 -5 -682 -9 -688 -5 -7 7 -11 38 -11 l46 0 0 739 c0 407 -4 742 -8 745 -5
3 -18 -7 -29 -22z"/>
<path d="M7975 9058 c-38 -28 -163 -137 -236 -206 -65 -62 -124 -104 -133 -95
-3 4 -7 16 -7 27 -1 12 -5 -1 -10 -29 -17 -106 -6 -687 12 -625 4 14 8 43 8
65 1 30 4 36 11 25 8 -12 10 -10 10 10 0 23 1 23 33 -12 48 -55 52 -61 52 -83
0 -11 3 -25 7 -30 4 -6 5 -20 3 -30 -2 -11 -4 -32 -4 -47 -1 -15 -8 -33 -16
-42 -8 -8 -15 -17 -15 -20 0 -8 -63 -65 -72 -66 -4 0 -10 17 -15 38 -6 31 -9
19 -19 -78 -7 -63 -13 -145 -13 -182 l-1 -66 98 -7 c53 -4 149 -4 212 1 133
10 527 6 680 -7 127 -10 106 -10 215 0 124 12 134 16 185 75 25 29 78 90 118
135 76 86 86 114 26 79 -19 -11 -38 -18 -41 -14 -4 3 -1 6 6 6 7 0 9 5 5 12
-4 7 -3 8 4 4 19 -11 14 8 -6 25 -10 8 -23 14 -29 12 -12 -4 -26 25 -17 38 3
5 1 9 -5 9 -17 0 -22 -19 -11 -39 10 -19 9 -19 -17 -5 -16 7 -36 14 -46 14
-11 0 -21 9 -24 20 -3 11 -15 23 -27 26 -30 8 -87 99 -72 115 8 9 7 10 -4 4
-13 -8 -13 -6 -2 8 8 9 11 21 7 27 -3 5 -1 10 4 10 6 0 11 -7 11 -15 0 -8 7
-15 15 -15 16 0 21 -15 8 -23 -5 -2 -2 -2 6 0 8 2 18 -2 23 -9 4 -7 8 -8 8 -2
0 5 -54 63 -120 128 -66 65 -122 127 -125 137 -7 22 -21 25 -29 7 -3 -7 -4 -4
-3 7 2 13 9 19 20 17 10 -2 25 4 33 13 19 18 7 39 -27 48 -12 3 -18 3 -15 0 3
-3 -2 -12 -10 -20 -8 -8 -12 -19 -9 -24 13 -19 -25 -8 -42 14 -27 33 -53 34
-53 2 0 -23 -4 -25 -40 -25 l-40 0 0 40 c0 40 0 40 38 40 33 0 38 3 40 26 1
15 -3 33 -9 40 -9 11 -8 14 1 14 9 0 7 7 -4 25 -21 32 -14 46 55 111 29 27 63
59 75 71 13 12 33 24 44 28 11 4 18 10 15 15 -7 12 155 180 173 180 7 0 12 6
10 12 -7 19 20 41 40 33 13 -5 12 -1 -5 16 -20 21 -23 21 -45 7 -24 -17 -140
-121 -323 -292 -94 -88 -109 -98 -126 -88 -31 20 -32 14 -2 -25 15 -20 28 -48
29 -63 1 -23 -3 -26 -30 -27 -17 -1 -23 1 -13 4 9 2 17 10 17 17 0 19 -112
127 -125 122 -7 -2 -18 0 -26 5 -11 7 -10 9 6 9 12 0 16 3 9 8 -6 4 -14 14
-17 22 -4 12 -6 12 -6 -2 -1 -20 -58 -35 -73 -20 -8 8 -4 9 13 5 23 -5 22 -4
-6 20 -21 17 -32 22 -37 14 -6 -9 -8 -9 -8 0 0 6 5 15 12 19 12 8 -17 34 -36
34 -6 0 -3 -5 7 -11 9 -6 15 -14 12 -20 -12 -18 -22 -8 -45 42 -20 42 -22 52
-10 59 8 5 11 12 7 17 -5 4 -12 1 -17 -7 -5 -8 -12 -11 -16 -7 -10 10 16 38
29 30 6 -3 7 -1 3 6 -4 6 -12 9 -17 6 -5 -3 -6 1 -3 9 3 9 2 16 -4 16 -5 0
-20 11 -33 25 -13 13 -29 25 -36 25 -9 0 -10 7 -4 23 6 14 15 21 27 19 15 -3
16 -1 5 12 -17 20 -20 20 -56 -6z m32 -71 c-1 -5 -6 -8 -10 -8 -4 1 -16 1 -28
1 -11 0 -18 4 -15 9 7 11 57 9 53 -2z m-82 -46 c-3 -6 -11 -11 -16 -11 -5 0
-4 6 3 14 14 16 24 13 13 -3z m129 -6 c-4 -8 -11 -12 -16 -9 -6 4 -5 10 3 15
19 12 19 11 13 -6z m260 -244 c4 -5 1 -11 -5 -13 -8 -3 -9 -10 -2 -23 6 -11 8
-25 6 -31 -5 -14 -43 -6 -43 8 0 5 -4 6 -10 3 -17 -10 -11 5 13 35 24 31 33
35 41 21z m76 -91 c0 -5 -4 -10 -10 -10 -5 0 -10 5 -10 10 0 6 5 10 10 10 6 0
10 -4 10 -10z m100 -25 c0 -8 -4 -15 -10 -15 -5 0 -10 7 -10 15 0 8 5 15 10
15 6 0 10 -7 10 -15z m-102 -37 c-7 -19 -21 -12 -25 11 -3 20 -1 22 12 11 9
-7 14 -17 13 -22z m102 -39 c0 -5 -4 -9 -10 -9 -5 0 -10 7 -10 16 0 8 5 12 10
9 6 -3 10 -10 10 -16z m30 -170 c0 -5 -7 -9 -16 -9 -9 0 -24 -10 -35 -22 -15
-19 -18 -20 -19 -6 0 9 -3 23 -6 31 -3 10 1 17 13 19 25 5 63 -3 63 -13z m126
5 c-3 -9 -6 -22 -6 -30 0 -8 -4 -14 -10 -14 -5 0 -7 7 -4 15 4 10 0 15 -12 16
-17 1 -17 2 -1 6 9 2 17 9 17 14 0 5 5 9 11 9 6 0 8 -7 5 -16z m-386 -4 c0 -5
-4 -10 -10 -10 -5 0 -10 5 -10 10 0 6 5 10 10 10 6 0 10 -4 10 -10z m-50 -10
c0 -5 -5 -10 -11 -10 -5 0 -7 5 -4 10 3 6 8 10 11 10 2 0 4 -4 4 -10z m513
-67 c-6 -16 -13 -16 -33 -2 -12 9 -12 10 3 5 12 -4 17 -2 14 6 -2 7 -17 12
-32 12 -26 -1 -27 0 -11 12 16 11 22 10 41 -4 12 -9 20 -23 18 -29z m72 -63
c3 -6 -1 -7 -9 -4 -18 7 -21 14 -7 14 6 0 13 -4 16 -10z m-718 -27 c-3 -3 -11
-2 -17 2 -9 6 -9 10 1 16 14 8 27 -7 16 -18z m153 7 c0 -5 -7 -10 -15 -10 -8
0 -15 5 -15 10 0 6 7 10 15 10 8 0 15 -4 15 -10z m-185 -30 c-3 -5 -13 -10
-21 -10 -8 0 -14 5 -14 10 0 6 9 10 21 10 11 0 17 -4 14 -10z m480 -10 c3 -5
1 -10 -4 -10 -6 0 -11 5 -11 10 0 6 2 10 4 10 3 0 8 -4 11 -10z m-541 -31
c-18 -20 -18 -20 11 -14 l30 6 -24 -21 c-17 -14 -26 -17 -31 -9 -5 6 -10 1
-14 -15 -3 -14 -16 -31 -29 -37 -22 -12 -22 -12 -3 10 22 24 15 41 -9 21 -13
-11 -14 -10 -9 4 3 9 12 16 20 16 8 0 14 5 14 11 0 12 40 48 54 49 5 0 1 -9
-10 -21z m63 6 c8 -23 -4 -30 -22 -12 -19 20 -19 27 0 27 9 0 18 -7 22 -15z
m1003 -195 c0 -5 -4 -10 -10 -10 -5 0 -10 5 -10 10 0 6 5 10 10 10 6 0 10 -4
10 -10z"/>
<path d="M8270 8650 c0 -5 5 -10 10 -10 6 0 10 5 10 10 0 6 -4 10 -10 10 -5 0
-10 -4 -10 -10z"/>
<path d="M3593 9041 c-22 -16 -94 -82 -159 -146 -66 -64 -141 -135 -169 -158
-68 -58 -128 -124 -142 -158 -6 -15 -10 -44 -8 -63 3 -33 52 -117 78 -133 7
-4 42 -44 78 -88 67 -83 95 -151 83 -199 -3 -13 -1 -27 5 -31 8 -4 5 -15 -8
-33 -10 -15 -18 -29 -17 -32 1 -6 -81 -94 -208 -224 -56 -59 -79 -89 -81 -111
-13 -115 -23 68 -24 430 -1 198 -4 484 -8 637 l-6 276 -39 -24 c-21 -14 -49
-29 -61 -34 -54 -24 -132 -91 -154 -134 -10 -19 -16 -64 -18 -130 -1 -56 -5
-110 -8 -121 -4 -11 -9 -38 -11 -60 -3 -22 -12 -45 -21 -51 -8 -6 -15 -16 -15
-21 0 -5 -22 -20 -50 -33 -33 -16 -50 -30 -50 -42 0 -10 -12 -38 -27 -62 -27
-43 -28 -50 -27 -163 1 -65 7 -154 13 -198 7 -44 13 -89 14 -100 1 -11 7 -24
12 -28 6 -5 0 -6 -12 -2 -17 4 -41 -11 -110 -68 -48 -41 -97 -84 -107 -96 -11
-11 -23 -21 -29 -21 -5 0 -52 38 -105 85 -53 47 -98 81 -101 77 -4 -4 -13 -8
-21 -10 -32 -6 -200 -230 -200 -266 0 -45 25 -89 73 -133 26 -22 47 -46 47
-51 0 -6 5 -12 12 -14 13 -5 -14 -55 -54 -98 -30 -33 -68 -114 -68 -145 0 -36
51 -65 114 -65 53 0 131 37 175 84 37 39 75 43 122 11 21 -15 39 -31 39 -35 0
-10 53 -41 100 -60 19 -7 45 -24 58 -38 17 -20 22 -21 22 -9 0 10 6 17 13 17
17 0 18 -631 0 -637 -8 -3 -9 -12 -4 -26 5 -12 8 -98 6 -192 -2 -191 10 -354
30 -402 12 -29 12 -33 -2 -33 -13 0 -13 -3 -3 -15 10 -12 10 -15 0 -15 -8 0
-9 -4 -3 -12 5 -7 16 -29 23 -48 8 -19 26 -48 41 -65 83 -89 108 -124 119
-163 6 -25 26 -58 45 -78 l34 -34 0 -102 c-1 -94 -3 -103 -24 -120 -13 -10
-31 -40 -39 -66 -16 -49 -18 -58 -36 -232 -6 -58 -14 -115 -17 -127 -3 -12 -6
-35 -8 -50 -12 -105 -18 -142 -25 -171 -5 -18 -5 -46 0 -64 5 -17 7 -34 4 -39
-7 -12 -15 -84 -20 -194 -7 -135 -7 -137 -30 -171 -29 -41 -35 -60 -40 -139
-3 -38 -7 -83 -9 -98 -2 -18 2 -30 11 -34 10 -4 12 -9 4 -18 -12 -14 6 -25 41
-25 10 0 19 -6 20 -12 3 -56 7 -69 21 -85 8 -10 21 -35 27 -55 7 -21 16 -40
20 -42 11 -7 6 -58 -9 -89 -15 -31 -56 -57 -89 -57 -25 0 -52 -28 -79 -83 -25
-52 -24 -42 -23 -272 0 -148 -3 -197 -14 -222 -8 -17 -13 -37 -10 -45 3 -8 -1
-33 -10 -57 -8 -24 -15 -58 -15 -75 0 -17 -9 -56 -21 -86 -11 -30 -23 -64 -26
-75 -3 -11 -11 -26 -16 -33 -14 -18 -16 -41 -17 -230 -2 -182 -11 -154 79
-245 19 -19 52 -40 75 -47 23 -7 56 -19 74 -27 18 -8 37 -11 43 -8 5 4 15 2
22 -3 22 -17 122 -21 151 -7 20 11 33 11 57 3 18 -6 48 -7 72 -3 23 4 78 9
122 10 44 2 94 6 110 10 60 13 174 24 350 34 99 6 203 13 230 16 205 24 393
32 680 28 154 -2 296 -3 315 -3 19 0 62 -4 95 -9 87 -15 297 -42 320 -42 302
1 383 6 695 37 158 16 716 20 818 5 234 -33 391 -40 449 -19 18 7 33 15 33 19
0 12 53 27 114 33 32 3 65 11 72 17 7 6 70 12 141 15 76 3 150 11 183 21 44
13 112 17 335 19 154 2 373 8 488 14 114 6 220 9 236 5 15 -3 57 -1 92 5 35 7
86 16 113 20 27 5 56 16 66 25 9 8 26 15 38 15 11 0 24 5 27 10 4 6 41 26 83
46 42 19 88 41 102 49 14 8 37 20 53 27 15 7 27 15 27 18 0 3 -361 6 -803 7
-441 1 -824 6 -852 11 l-50 10 49 1 c141 3 298 52 359 112 32 31 49 39 90 44
65 8 108 -9 168 -65 77 -72 115 -84 264 -84 129 -1 130 -1 205 35 41 20 99 58
129 85 101 90 281 279 281 294 0 9 -19 34 -42 55 -39 37 -40 37 -10 5 34 -38
42 -64 18 -58 -18 4 -440 418 -433 425 7 6 46 -14 77 -41 22 -19 22 -18 -2 10
-16 16 -28 33 -28 36 0 3 77 81 171 174 94 93 189 190 211 217 l40 47 -31 35
c-17 20 -31 32 -31 27 0 -5 7 -15 15 -22 15 -13 21 -40 8 -40 -11 0 -213 209
-213 220 0 22 25 7 93 -58 59 -56 64 -59 29 -18 -23 27 -42 52 -42 57 0 10 56
17 200 24 110 5 116 7 137 33 13 15 21 31 20 37 -4 10 -1460 16 -1670 6 l-122
-6 4 -60 c4 -70 6 -75 25 -49 13 17 30 19 170 22 120 3 156 1 156 -9 0 -21
-309 -321 -325 -315 -25 9 -30 -34 -28 -238 3 -190 13 -259 27 -183 3 19 14
42 24 51 17 15 21 14 51 -8 33 -24 134 -160 125 -168 -2 -3 4 -13 15 -22 19
-17 18 -18 -6 -44 -13 -15 -20 -28 -15 -30 15 -5 -178 -193 -196 -190 -21 4
-30 -57 -31 -218 -1 -87 -4 -114 -16 -124 -8 -7 -46 -15 -84 -18 l-68 -4 -7
114 c-4 64 -6 425 -6 804 l1 689 -1174 3 c-1025 2 -1176 0 -1180 -13 -9 -22 5
-185 14 -179 5 3 9 18 9 33 0 59 10 61 301 61 145 0 354 4 464 10 226 12 1003
13 1258 1 154 -7 170 -9 190 -29 l22 -23 0 -728 c0 -401 -4 -733 -8 -738 -12
-12 -1078 -16 -1108 -4 l-24 10 23 0 c13 1 36 9 50 19 15 10 41 24 57 32 38
18 186 121 248 172 50 43 65 72 20 40 -112 -79 -203 -112 -333 -119 -302 -18
-595 183 -666 457 -16 62 -16 125 0 305 5 53 6 56 15 51 10 -7 33 49 24 58 -4
3 -1 6 5 6 7 0 12 5 12 11 0 17 64 95 134 163 57 55 58 58 21 36 -55 -33 -99
-72 -173 -154 -35 -39 -85 -96 -113 -126 -27 -30 -63 -75 -79 -100 -16 -25
-33 -50 -37 -55 -32 -43 -99 -205 -114 -272 -7 -32 -16 -63 -21 -69 -17 -24
-10 -201 13 -300 24 -105 33 -118 101 -146 l43 -17 -160 2 -160 2 -5 75 -5 75
-10 -75 -10 -75 -84 -5 c-71 -4 -84 -3 -92 12 -5 9 -9 359 -9 807 l0 791 -915
0 c-894 0 -915 0 -925 19 -13 25 -13 158 0 166 9 6 6 654 -6 1031 -3 111 -3
246 1 300 l7 99 324 3 c178 1 324 1 324 -1 0 -2 -42 -36 -93 -75 -51 -39 -113
-94 -137 -124 -25 -29 -75 -84 -111 -123 -120 -127 -147 -162 -203 -270 -45
-86 -57 -173 -61 -435 -3 -218 6 -256 75 -330 36 -39 47 -56 38 -62 -7 -4 25
-8 71 -8 121 0 425 -21 431 -30 9 -14 142 -27 184 -18 87 18 166 27 296 34
122 6 138 9 163 30 16 13 32 24 36 24 7 0 197 184 221 215 8 10 -14 -5 -50
-35 -69 -57 -195 -121 -270 -137 -25 -6 -103 -9 -175 -8 -115 2 -141 6 -227
34 -112 36 -196 89 -284 176 -61 61 -184 235 -184 261 0 8 -5 14 -11 14 -6 0
-9 6 -6 14 3 7 2 17 -3 22 -19 19 -31 187 -20 284 6 52 12 109 13 126 1 17 20
66 42 109 76 150 269 315 426 364 41 13 77 26 81 30 4 3 -194 6 -440 6 l-447
0 -5 84 c-4 59 -2 85 7 88 6 3 9 11 6 19 -3 8 -2 26 1 40 7 25 7 26 34 8 30
-19 95 -23 138 -7 16 6 56 18 89 28 106 29 230 98 301 169 58 57 109 86 151
86 33 0 115 -51 162 -101 90 -96 114 -119 123 -119 6 0 23 -10 40 -21 24 -18
39 -20 86 -17 31 3 68 10 82 16 48 22 135 82 191 132 9 8 36 29 59 45 35 25
94 87 213 222 12 14 17 29 13 40 -6 14 -9 15 -15 4 -5 -7 -17 -11 -27 -7 -28
9 -447 431 -443 445 3 8 25 -4 59 -30 30 -24 45 -32 33 -18 -13 14 -23 33 -23
41 0 9 93 109 207 222 l207 206 -61 63 c-80 82 -156 166 -166 183 -13 24 35
34 159 34 113 0 115 0 124 -25 13 -33 17 -1622 5 -1634 -6 -5 -19 -11 -30 -14
-11 -3 10 -5 48 -6 l67 -1 0 886 0 886 -427 -2 c-236 -2 -652 -2 -925 -1
l-498 1 0 74 c0 111 -4 107 109 101 53 -3 132 -10 177 -17 65 -9 108 -7 232 6
137 16 186 16 480 6 356 -14 517 -6 534 25 5 8 30 38 56 66 54 58 152 188 152
201 0 4 -10 8 -23 8 -16 0 -83 61 -235 213 -205 205 -253 264 -177 217 27 -17
35 -18 35 -7 0 7 97 110 215 227 l215 214 -31 28 c-35 32 -51 37 -24 8 14 -16
15 -20 4 -20 -16 0 -127 111 -178 177 -52 69 -30 71 30 4 76 -83 85 -78 12 7
-71 83 -72 83 -97 70 -27 -14 -154 -126 -276 -243 -118 -113 -165 -149 -182
-139 -7 4 -33 24 -58 43 l-45 36 53 -57 c28 -31 52 -59 52 -62 0 -31 -118 78
-278 254 -27 30 -68 75 -90 100 -40 43 -50 60 -35 60 3 0 15 -7 25 -17 30 -27
30 -9 0 20 l-28 27 -41 -29z m-985 -1314 c24 -25 30 -37 22 -42 -8 -5 -17 -1
-22 9 -5 10 -24 33 -41 53 -41 46 -6 30 41 -20z m-403 -47 c44 -44 75 -80 70
-80 -12 0 -89 70 -135 123 -56 65 -18 40 65 -43z m394 -374 c52 -52 93 -98 90
-101 -3 -3 -59 47 -125 111 -69 67 -106 109 -89 100 17 -8 73 -58 124 -110z
m-58 107 c13 -16 12 -17 -3 -4 -17 13 -22 21 -14 21 2 0 10 -8 17 -17z m45
-18 c9 -8 13 -19 9 -24 -3 -6 3 -14 12 -20 10 -6 13 -11 7 -11 -5 0 -19 7 -30
15 -13 10 -15 14 -5 15 11 0 10 5 -4 20 -21 23 -11 27 11 5z m881 -135 c-131
-123 -146 -136 -199 -171 -57 -37 -101 -77 -133 -121 -101 -139 -90 -192 83
-396 56 -66 93 -124 99 -154 3 -15 9 -25 14 -22 5 3 9 -1 9 -10 0 -8 -4 -16
-10 -18 -5 -1 -11 -22 -12 -44 -2 -31 -7 -40 -17 -36 -10 4 -13 1 -8 -12 4
-10 3 -15 -3 -11 -9 6 -140 -123 -148 -145 -2 -4 -21 -27 -42 -50 -22 -24 -40
-49 -40 -55 0 -7 -6 -18 -14 -24 -21 -18 -25 109 -24 766 l0 582 27 3 c14 2
135 4 268 5 l242 0 -92 -87z m973 80 c0 -5 -4 -10 -9 -10 -12 0 -160 -128
-261 -226 -93 -91 -169 -154 -185 -154 -6 0 -28 15 -50 32 -40 33 -36 23 19
-42 21 -25 25 -35 15 -39 -15 -5 -388 376 -389 397 0 27 26 8 107 -75 l84 -88
-80 93 c-45 52 -81 98 -81 102 0 16 42 17 438 19 255 1 392 -2 392 -9z m130
-142 c94 -97 107 -114 88 -116 -28 -5 -208 174 -208 207 0 11 2 21 5 21 2 0
54 -51 115 -112z m3647 -3620 c245 -242 279 -278 259 -278 -22 0 -416 386
-416 407 0 23 21 5 157 -129z m-4077 122 c0 -12 -337 -333 -360 -344 -15 -7
-29 0 -67 34 -78 68 -285 291 -278 298 4 4 142 9 308 12 166 3 323 6 350 7 26
0 47 -3 47 -7z m601 -4 c9 -4 19 -21 23 -37 8 -40 8 -1470 0 -1478 -9 -9 -679
-14 -774 -5 -47 5 -71 10 -55 11 38 5 73 17 161 60 59 28 97 60 228 187 86 84
156 160 156 169 0 11 -8 15 -24 14 -19 -2 -69 41 -235 201 -116 112 -211 208
-211 213 0 25 38 -7 238 -198 l217 -207 -197 200 c-109 109 -198 205 -198 212
0 6 84 94 186 194 102 101 195 195 206 211 l21 29 -112 112 c-61 62 -108 116
-104 120 10 10 451 2 474 -8z m4051 -4 c10 -10 -18 -43 -147 -172 -88 -87
-166 -159 -173 -160 -17 0 -342 321 -342 338 0 19 643 13 662 -6z m-5547 -2
c28 0 26 -3 -58 -88 -97 -98 -141 -129 -153 -111 -10 17 -18 152 -10 182 6 24
7 24 98 21 51 -2 106 -4 123 -4z m1123 -119 c69 -63 83 -83 63 -95 -12 -8
-211 191 -211 210 0 17 10 10 148 -115z m-800 -67 c175 -169 213 -214 181
-214 -13 0 -389 379 -389 392 0 4 4 8 8 8 4 0 94 -84 200 -186z m-508 -639 c0
-13 5 -27 10 -30 6 -3 10 -19 10 -36 0 -16 4 -29 10 -29 15 0 1 -72 -18 -86
-37 -29 -42 -18 -42 85 0 55 3 106 6 115 8 22 24 10 24 -19z m465 -535 c3 -5
14 -10 24 -10 10 0 42 -23 71 -50 28 -28 65 -54 81 -57 16 -3 26 -10 22 -16
-4 -6 0 -8 8 -5 8 3 23 2 34 -3 24 -9 -114 -12 -450 -9 -132 1 -246 5 -253 9
-26 14 78 51 147 51 61 1 106 18 164 63 41 31 56 37 97 37 27 0 52 -4 55 -10z
m358 -147 c-7 -2 -21 -2 -30 0 -10 3 -4 5 12 5 17 0 24 -2 18 -5z"/>
<path d="M3830 7075 c30 -30 57 -55 59 -55 3 0 -19 25 -49 55 -30 30 -57 55
-59 55 -3 0 19 -25 49 -55z"/>
<path d="M9001 8945 c7 -11 40 -48 71 -83 32 -34 58 -67 58 -71 0 -5 -16 -12
-35 -15 -19 -4 -35 -13 -35 -20 0 -8 -11 -17 -25 -20 -14 -4 -25 -12 -25 -19
0 -14 -73 -77 -90 -77 -6 0 -8 -4 -5 -10 3 -5 -5 -15 -19 -22 -14 -6 -26 -16
-26 -22 0 -6 -5 -4 -10 4 -8 13 -11 12 -16 -6 -3 -11 -19 -28 -35 -38 -16 -9
-29 -22 -29 -27 0 -6 4 -7 10 -4 15 9 0 -28 -17 -42 -8 -6 -21 -9 -29 -6 -9 3
-12 0 -9 -9 3 -8 -9 -28 -30 -47 -29 -26 -34 -35 -25 -46 29 -35 47 -27 140
62 127 121 330 341 330 358 0 7 -37 51 -81 97 -45 45 -76 74 -68 63z"/>
<path d="M5667 8887 c-182 -183 -322 -368 -372 -494 -22 -55 -68 -279 -68
-333 -1 -105 24 -265 54 -348 28 -80 28 -81 -43 -84 -35 -2 41 -7 167 -11 127
-5 289 -13 360 -18 168 -12 330 -11 491 1 194 15 234 20 235 33 0 12 66 69
132 117 19 14 41 34 48 45 11 18 10 18 -3 7 -28 -23 -172 -90 -233 -107 -119
-35 -293 -17 -451 46 -102 41 -167 84 -237 158 -62 64 -170 226 -188 278 -6
18 -14 31 -19 28 -4 -3 -6 4 -3 15 3 11 0 20 -6 20 -6 0 -11 -6 -12 -12 0 -7
-5 -2 -10 12 -9 22 -7 107 6 280 6 86 44 200 87 263 13 20 50 63 81 97 70 74
57 80 -16 7z"/>
<path d="M8118 8897 c7 -8 10 -16 8 -18 -3 -2 6 -9 19 -15 23 -11 23 -11 9 11
-8 13 -22 26 -31 29 -12 5 -13 4 -5 -7z"/>
<path d="M4650 8896 c0 -2 8 -10 18 -17 15 -13 16 -12 3 4 -13 16 -21 21 -21
13z"/>
<path d="M3845 8840 c27 -27 51 -50 54 -50 3 0 -17 23 -44 50 -27 28 -51 50
-54 50 -3 0 17 -22 44 -50z"/>
<path d="M8130 8846 c0 -2 7 -7 16 -10 8 -3 12 -2 9 4 -6 10 -25 14 -25 6z"/>
<path d="M6070 8782 c-100 -56 -183 -135 -216 -206 -38 -85 -40 -143 -2 -77
28 50 71 66 173 65 81 0 97 -3 155 -32 64 -32 130 -100 130 -133 0 -8 4 -19
10 -25 16 -16 31 -155 25 -229 -6 -69 -27 -132 -49 -148 -23 -17 94 3 133 23
70 35 175 142 204 208 91 201 0 470 -190 564 -60 29 -74 32 -177 34 l-111 3
-85 -47z"/>
<path d="M9030 8810 c-9 -6 -10 -10 -3 -10 6 0 15 5 18 10 8 12 4 12 -15 0z"/>
<path d="M8180 8780 c0 -5 4 -10 9 -10 5 0 17 -7 26 -16 9 -9 19 -14 22 -10 6
6 -36 45 -49 46 -5 0 -8 -4 -8 -10z"/>
<path d="M8942 8044 c10 -10 20 -15 24 -12 3 4 -5 12 -18 18 -22 12 -22 12 -6
-6z"/>
<path d="M5064 7820 c0 -85 2 -120 3 -77 2 42 2 112 0 155 -1 42 -3 7 -3 -78z"/>
<path d="M5055 7630 c3 -5 8 -10 11 -10 2 0 4 5 4 10 0 6 -5 10 -11 10 -5 0
-7 -4 -4 -10z"/>
<path d="M5177 7433 l-128 -4 3 -40 3 -40 409 1 c225 0 413 3 418 6 5 3 14 1
21 -4 7 -6 34 -7 67 -2 82 11 1228 3 1274 -9 72 -18 68 18 65 -552 -2 -283 -2
-605 0 -717 2 -111 0 -245 -4 -297 -6 -85 -9 -94 -28 -98 -12 -2 1 -5 28 -6
28 -1 60 -4 73 -7 l22 -6 0 886 0 886 -877 0 c-483 0 -954 2 -1048 4 -93 2
-228 1 -298 -1z"/>
<path d="M7588 7425 c-2 -3 -2 -24 2 -47 4 -31 10 -42 20 -39 25 6 410 7 410
1 0 -3 -12 -13 -27 -23 -16 -9 -88 -75 -162 -147 -73 -71 -138 -130 -143 -130
-6 0 -23 -9 -39 -21 -22 -16 -33 -18 -43 -10 -11 9 -14 -1 -20 -50 -12 -117
-2 -419 15 -419 4 0 12 14 18 30 11 32 35 40 45 15 3 -8 13 -15 23 -15 14 0
15 -2 4 -9 -11 -7 -9 -10 8 -16 11 -3 21 -11 21 -16 0 -5 12 -27 26 -49 41
-61 47 -106 21 -153 -12 -22 -28 -50 -35 -63 -20 -36 -116 -107 -120 -89 -9
42 -20 1 -32 -120 -12 -124 -10 -218 7 -341 5 -40 23 -63 23 -30 0 28 24 39
123 56 50 9 169 65 222 105 17 12 51 42 78 67 46 44 48 45 105 41 82 -6 149
-44 247 -140 46 -45 96 -85 110 -89 70 -18 232 12 255 46 3 4 28 25 55 45 28
21 54 44 58 52 4 7 25 22 46 33 40 20 261 246 261 266 0 6 -7 17 -15 24 -13
11 -14 10 -9 -4 4 -10 1 -16 -8 -16 -16 0 -458 442 -458 458 0 15 23 15 38 0
9 -9 62 39 227 206 118 120 215 224 215 231 0 18 -20 30 -29 18 -8 -13 -41
-24 -41 -15 0 7 -9 9 -67 13 -26 1 -26 2 -7 16 18 15 18 15 -8 9 -22 -5 -26
-3 -22 9 4 8 1 15 -6 15 -6 0 -9 -4 -6 -8 2 -4 2 -13 -2 -19 -9 -13 -52 1 -52
18 0 6 7 9 15 5 8 -3 15 -2 15 2 0 5 10 18 21 31 l21 23 -25 26 c-82 88 -86
95 -68 106 5 4 24 -6 43 -21 l33 -28 -28 34 c-15 19 -24 37 -20 41 9 8 201 20
340 20 92 0 93 0 108 30 8 16 15 31 15 35 0 6 -1795 7 -1802 0z m1291 -83 c0
-4 -57 -58 -127 -120 -70 -62 -165 -148 -212 -192 -47 -44 -89 -80 -93 -80 -5
0 -23 10 -40 22 l-32 22 20 -25 c11 -13 33 -39 49 -56 27 -30 28 -33 10 -33
-12 0 -60 40 -120 98 -55 54 -104 97 -110 95 -7 -2 -14 3 -18 12 -4 11 -2 14
7 9 23 -14 -27 42 -107 118 -62 59 -78 80 -69 89 9 9 19 6 45 -12 l33 -24 -28
34 c-22 26 -25 36 -15 43 15 10 808 10 807 0z m91 -162 c0 -5 -4 -10 -10 -10
-5 0 -10 -7 -10 -15 0 -9 -6 -12 -16 -8 -13 5 -13 7 -2 14 11 7 10 11 -2 19
-12 8 -9 10 13 10 15 0 27 -4 27 -10z m-819 -27 c13 -17 13 -17 -6 -3 -11 8
-22 16 -24 17 -2 2 0 3 6 3 6 0 17 -8 24 -17z m-11 -23 c0 -5 -2 -10 -4 -10
-3 0 -8 5 -11 10 -3 6 -1 10 4 10 6 0 11 -4 11 -10z m785 -50 c-3 -5 -10 -10
-16 -10 -5 0 -9 5 -9 10 0 6 7 10 16 10 8 0 12 -4 9 -10z m128 -27 c-7 -2 -19
-2 -25 0 -7 3 -2 5 12 5 14 0 19 -2 13 -5z m-333 -7 c0 -2 -11 -6 -25 -8 -14
-3 -25 -1 -25 3 0 5 11 9 25 9 14 0 25 -2 25 -4z m-86 -41 c-18 -14 -18 -14
10 -15 45 0 22 -13 -29 -16 -38 -1 -44 0 -34 12 6 8 17 14 24 14 7 0 18 7 25
15 7 9 15 13 18 10 3 -3 -3 -12 -14 -20z m-339 -37 c6 -4 2 -8 -7 -8 -10 0
-18 7 -18 17 0 9 3 12 8 7 4 -5 12 -12 17 -16z m639 -15 c-27 -20 -35 -16 -22
12 9 20 14 23 25 13 13 -10 12 -14 -3 -25z m-44 18 c0 -5 -6 -12 -12 -14 -9
-4 -6 -12 10 -24 21 -17 22 -21 8 -32 -14 -12 -16 -10 -16 8 0 12 -4 19 -10
16 -5 -3 -10 -17 -10 -30 0 -12 -7 -25 -14 -28 -11 -4 -13 -1 -9 10 4 11 2 14
-5 9 -24 -15 -12 36 16 64 28 30 42 37 42 21z m-330 -26 c-7 -9 -10 -18 -7
-22 4 -3 13 0 22 7 9 8 15 8 15 2 0 -11 -38 -42 -52 -42 -4 0 -4 8 -1 17 5 13
3 15 -13 9 -15 -6 -15 -3 5 18 26 28 52 37 31 11z m90 -21 c0 -8 -19 -13 -24
-6 -3 5 1 9 9 9 8 0 15 -2 15 -3z m110 -36 c0 -17 4 -27 10 -23 6 3 10 4 10 2
0 -3 -19 -15 -41 -26 -32 -17 -40 -19 -36 -7 4 11 1 13 -11 9 -9 -4 -19 -9
-22 -12 -3 -3 -14 -11 -26 -17 -17 -10 -22 -9 -32 7 -7 10 -12 25 -12 33 0 8
-9 18 -21 21 -37 12 -4 29 51 26 36 -1 50 2 50 11 0 10 12 12 40 10 37 -4 40
-6 40 -34z m-260 8 c0 -3 -4 -8 -10 -11 -5 -3 -10 -1 -10 4 0 6 5 11 10 11 6
0 10 -2 10 -4z m326 -48 c5 -8 2 -9 -9 -5 -11 4 -22 -1 -29 -13 -15 -24 -28
-26 -28 -5 0 9 10 20 23 25 30 12 35 12 43 -2z m49 2 c-3 -5 -10 -10 -16 -10
-5 0 -9 5 -9 10 0 6 7 10 16 10 8 0 12 -4 9 -10z m-175 -64 c0 -3 -4 -8 -10
-11 -5 -3 -10 -1 -10 4 0 6 5 11 10 11 6 0 10 -2 10 -4z m100 -6 c0 -5 -5 -10
-11 -10 -5 0 -7 5 -4 10 3 6 8 10 11 10 2 0 4 -4 4 -10z m-728 -342 c-7 -7
-12 -8 -12 -2 0 14 12 26 19 19 2 -3 -1 -11 -7 -17z"/>
<path d="M5845 7288 c-22 -17 -70 -61 -107 -97 -38 -36 -68 -62 -68 -58 0 4
-10 -1 -22 -13 -12 -11 -25 -20 -29 -20 -4 0 -25 -28 -48 -63 -68 -104 -56
-158 61 -277 102 -105 148 -173 148 -220 -1 -43 -52 -101 -183 -209 -87 -72
-174 -167 -201 -219 -7 -15 -19 -53 -26 -84 -16 -70 -3 -111 43 -134 85 -45
266 17 397 135 25 22 48 41 52 41 4 0 13 6 20 13 7 6 34 23 60 36 40 20 56 23
105 17 32 -4 62 -11 67 -16 6 -6 18 -10 27 -10 9 0 44 -20 77 -45 33 -25 64
-45 70 -45 5 0 16 -7 23 -16 11 -13 26 -15 77 -11 72 7 175 56 226 108 15 16
32 29 37 29 4 0 13 9 19 20 15 27 -2 25 -34 -5 -15 -14 -29 -25 -31 -25 -1 0
-11 13 -22 29 -16 26 -67 83 -270 301 l-41 45 -59 -55 c-32 -30 -131 -124
-221 -210 -90 -85 -174 -161 -187 -169 -23 -14 -26 -12 -91 58 -90 97 -124
141 -124 159 0 16 13 29 113 109 37 30 137 115 223 189 86 74 164 138 172 143
13 7 -14 41 -134 171 -165 178 -224 248 -224 262 0 5 28 37 63 71 98 98 113
122 42 65z"/>
<path d="M6567 7211 c-144 -136 -240 -233 -218 -222 19 11 95 81 281 257 13
13 19 24 12 24 -7 0 -41 -26 -75 -59z"/>
<path d="M8996 7152 c-3 -5 1 -15 10 -22 12 -11 17 -11 27 0 9 10 9 11 0 6 -6
-3 -16 1 -21 10 -5 10 -12 12 -16 6z"/>
<path d="M6655 6850 c-3 -5 -2 -10 4 -10 5 0 13 5 16 10 3 6 2 10 -4 10 -5 0
-13 -4 -16 -10z"/>
<path d="M4088 5673 c29 -2 74 -2 100 0 26 2 2 3 -53 3 -55 0 -76 -1 -47 -3z"/>
<path d="M8403 5673 c65 -2 168 -2 230 0 62 1 9 3 -118 3 -126 0 -177 -2 -112
-3z"/>
<path d="M4300 5453 c95 -32 117 -36 240 -39 164 -5 215 -11 229 -28 6 -7 13
-38 16 -67 7 -74 7 -338 0 -349 -3 -4 2 -40 10 -80 18 -85 20 -212 3 -260 -7
-22 -14 -149 -17 -343 l-6 -307 43 0 42 0 0 755 0 755 -332 -1 -333 -1 105
-35z"/>
<path d="M5051 5443 c0 -46 17 -109 18 -72 1 9 7 22 15 28 11 9 279 12 1093
13 593 0 1088 -2 1100 -6 12 -4 25 -16 28 -26 7 -22 7 -425 0 -997 l-4 -402
45 -7 c25 -3 49 -3 53 2 4 5 5 348 3 762 l-4 752 -1174 0 -1174 0 1 -47z"/>
<path d="M7590 5439 c0 -48 1 -50 23 -43 17 6 407 13 407 8 0 -1 -26 -21 -57
-45 -32 -23 -110 -94 -174 -156 -64 -62 -121 -113 -127 -113 -7 0 -12 -7 -12
-16 0 -12 -6 -15 -25 -10 -27 7 -29 1 -40 -129 -4 -38 -20 -126 -38 -195 -27
-109 -31 -142 -31 -260 -1 -128 12 -216 36 -247 9 -11 27 -164 28 -230 0 -21
5 -23 53 -23 87 0 268 -20 291 -32 21 -11 280 -13 298 -2 5 3 106 12 225 20
119 8 219 16 221 19 3 3 -2 5 -11 5 -28 0 -8 28 41 58 26 16 67 48 92 71 l45
41 -55 -29 c-74 -39 -177 -73 -222 -74 -21 0 -38 -3 -38 -7 0 -4 -16 -10 -35
-12 -19 -2 -35 0 -35 4 0 4 -22 8 -50 8 -98 0 -234 44 -346 112 -108 64 -238
213 -301 343 -18 39 -37 77 -42 85 -29 52 -36 92 -35 205 0 104 4 130 27 193
35 99 79 172 142 240 90 98 265 211 380 248 34 11 -10 13 -297 13 l-338 1 0
-51z"/>
<path d="M8615 5459 l90 -30 310 -2 c283 -2 313 0 338 16 15 9 27 24 27 32 0
13 -57 15 -427 15 l-428 -1 90 -30z"/>
<path d="M5879 5284 c-119 -95 -231 -211 -256 -265 -27 -57 -21 -91 30 -170
39 -61 40 -83 3 -128 -40 -48 -101 -116 -118 -132 -25 -23 -158 -198 -158
-208 0 -5 -7 -14 -14 -21 -8 -6 -22 -33 -32 -58 -9 -26 -21 -57 -26 -69 -14
-28 -5 -182 12 -212 10 -19 9 -25 -6 -35 -14 -11 12 -14 152 -18 116 -4 187
-11 227 -23 56 -16 63 -16 125 0 52 14 133 19 362 25 234 5 261 7 130 8 -91 1
-172 6 -179 11 -32 20 78 77 127 66 12 -3 30 -7 40 -9 9 -2 48 -7 85 -11 96
-10 162 16 248 96 35 33 54 54 41 47 -25 -14 -14 -24 -145 130 -38 46 -73 79
-77 75 -4 -4 -35 -40 -68 -79 -79 -92 -211 -198 -282 -225 -50 -19 -62 -20
-130 -11 -146 20 -230 69 -307 176 -49 69 -63 121 -63 241 0 117 5 130 76 213
85 98 205 153 337 153 37 0 67 4 67 8 0 4 -9 16 -20 26 -11 10 -17 21 -15 26
5 8 -8 24 -158 200 l-78 91 23 25 c17 18 96 82 137 110 2 2 2 5 -1 8 -3 3 -43
-24 -89 -61z"/>
<path d="M6724 5188 c-46 -36 -101 -86 -203 -185 -52 -51 -98 -93 -103 -93 -4
0 -8 -4 -8 -10 0 -30 45 6 191 150 89 88 159 160 157 160 -3 0 -18 -10 -34
-22z"/>
<path d="M3955 5190 l-20 -9 20 -1 c17 -1 16 -3 -5 -9 -121 -37 -247 -155
-284 -265 -20 -58 -13 -70 17 -33 25 31 118 67 174 67 21 0 68 -7 106 -15 83
-17 157 -74 188 -144 44 -99 53 -136 53 -221 0 -71 -4 -95 -26 -142 -26 -57
-26 -58 -6 -58 36 0 155 70 216 128 55 53 99 123 87 142 -3 5 1 10 7 12 10 4
13 37 13 124 0 114 -2 122 -33 186 -64 130 -160 209 -290 237 -61 13 -188 14
-217 1z"/>
<path d="M8320 5189 c-25 -6 -49 -15 -54 -19 -5 -5 2 -7 15 -4 13 3 -4 -9 -38
-26 -115 -57 -219 -175 -238 -270 l-7 -35 38 41 c51 54 113 70 204 54 143 -26
212 -74 267 -187 35 -71 36 -79 36 -176 0 -107 -16 -168 -51 -196 -15 -12 -12
-13 22 -8 111 17 224 112 291 243 54 106 60 192 21 308 -44 131 -115 208 -236
256 -64 26 -200 35 -270 19z"/>
<path d="M6020 4580 c21 -7 17 -8 -21 -9 -66 -1 -134 -47 -150 -101 -18 -59
-4 -90 51 -117 82 -42 177 -21 239 53 35 43 36 71 5 120 -21 31 -84 64 -121
63 l-28 -1 25 -8z"/>
<path d="M8488 4053 c7 -3 16 -2 19 1 4 3 -2 6 -13 5 -11 0 -14 -3 -6 -6z"/>
<path d="M6105 3266 c-22 -8 -35 -14 -30 -15 6 -1 -12 -12 -40 -25 -61 -28
-157 -114 -179 -160 -9 -19 -19 -49 -22 -68 l-7 -33 22 22 c29 30 58 36 149
31 112 -7 156 -39 207 -150 25 -55 33 -128 21 -188 -10 -45 -26 -67 -56 -73
-14 -3 8 -4 48 -3 99 5 170 40 233 120 81 100 99 229 49 343 -26 60 -113 148
-174 178 -64 31 -164 41 -221 21z"/>
<path d="M8970 2846 c0 -2 8 -10 18 -17 15 -13 16 -12 3 4 -13 16 -21 21 -21
13z"/>
<path d="M9040 2775 c19 -19 36 -35 39 -35 3 0 -10 16 -29 35 -19 19 -36 35
-39 35 -3 0 10 -16 29 -35z"/>
<path d="M1300 2706 c-20 -53 -20 -80 0 -32 11 27 18 51 16 54 -3 2 -10 -7
-16 -22z"/>
<path d="M1234 2525 c-19 -44 -28 -79 -23 -86 4 -8 10 -11 12 -9 7 9 49 161
46 165 -2 1 -18 -30 -35 -70z"/>
<path d="M2390 1250 c52 -42 258 -189 327 -235 l72 -47 73 59 c96 79 155 117
201 132 20 7 37 17 37 23 0 6 -8 7 -17 3 -49 -19 -139 -30 -238 -29 -92 1
-122 6 -185 28 -138 50 -215 73 -255 79 l-40 6 25 -19z"/>
</g>
</svg>
